<svg xmlns="http://www.w3.org/2000/svg" width="176.428" height="135.25" viewBox="0 0 176.428 135.25">
  <g id="cmt-Web-icon005" transform="translate(-1224.319 -5437.909)">
    <circle id="椭圆_30" data-name="椭圆 30" cx="58.323" cy="58.323" r="58.323" transform="translate(1237.258 5437.909)" fill="#ddf1f9"/>
    <rect id="矩形_95" data-name="矩形 95" width="116.646" height="63.625" transform="translate(1226.653 5461.238)" fill="none" stroke="#005483" stroke-miterlimit="10" stroke-width="4.669"/>
    <path id="路径_374" data-name="路径 374" d="M1300.883,5471.842H1243.62v.063a6.41,6.41,0,0,1-6.362,6.414h0v29.618c4.241,0,6.362,2.813,6.362,6.322h57.263" fill="none" stroke="#005483" stroke-miterlimit="10" stroke-width="4.669"/>
    <path id="路径_375" data-name="路径 375" d="M1303,5524.863h-76.35v-63.625h74.229" fill="none" stroke="#005483" stroke-miterlimit="10" stroke-width="4.669"/>
    <path id="路径_376" data-name="路径 376" d="M1313.608,5461.238H1343.3v63.625h-8.483" fill="none" stroke="#005483" stroke-miterlimit="10" stroke-width="4.669"/>
    <line id="直线_208" data-name="直线 208" x2="14.297" transform="translate(1252.104 5493.051)" fill="none" stroke="#005483" stroke-miterlimit="10" stroke-width="4.669"/>
    <line id="直线_209" data-name="直线 209" x2="6.362" transform="translate(1315.729 5493.051)" fill="none" stroke="#005483" stroke-miterlimit="10" stroke-width="4.669"/>
    <path id="路径_377" data-name="路径 377" d="M1290.489,5505.784c-6.442,0-11.661-5.7-11.656-12.729s5.231-12.721,11.673-12.718" fill="none" stroke="#005483" stroke-miterlimit="10" stroke-width="4.669"/>
    <path id="路径_378" data-name="路径 378" d="M1300.883,5471.842H1243.62a6.363,6.363,0,0,1-6.362,6.363v29.785c4.241,0,6.362,2.817,6.362,6.331l57.263-.062" fill="none" stroke="#005483" stroke-miterlimit="10" stroke-width="4.669"/>
    <path id="路径_379" data-name="路径 379" d="M1313.608,5471.842h12.725c0,4.242,2.848,6.487,6.362,6.487v14.722" fill="none" stroke="#005483" stroke-miterlimit="10" stroke-width="4.669"/>
    <line id="直线_210" data-name="直线 210" y2="8.483" transform="translate(1307.245 5448.513)" fill="none" stroke="#005483" stroke-miterlimit="10" stroke-width="4.669"/>
    <line id="直线_211" data-name="直线 211" y2="8.483" transform="translate(1307.245 5463.359)" fill="none" stroke="#005483" stroke-miterlimit="10" stroke-width="4.669"/>
    <line id="直线_212" data-name="直线 212" y2="8.483" transform="translate(1307.245 5478.205)" fill="none" stroke="#005483" stroke-miterlimit="10" stroke-width="4.669"/>
    <line id="直线_213" data-name="直线 213" y2="8.483" transform="translate(1307.245 5493.051)" fill="none" stroke="#005483" stroke-miterlimit="10" stroke-width="4.669"/>
    <line id="直线_214" data-name="直线 214" y2="8.483" transform="translate(1307.245 5507.896)" fill="none" stroke="#005483" stroke-miterlimit="10" stroke-width="4.669"/>
    <path id="路径_380" data-name="路径 380" d="M1397.17,5561.1l-32.618-32.671-8.769,8.251,32.9,32.9a4.242,4.242,0,0,0,6,0l2.485-2.485A4.243,4.243,0,0,0,1397.17,5561.1Z" fill="none" stroke="#005483" stroke-miterlimit="10" stroke-width="4.669"/>
    <path id="路径_381" data-name="路径 381" d="M1364.552,5528.428l32.618,32.671a4.243,4.243,0,0,1,0,6l-2.485,2.485a4.242,4.242,0,0,1-6,0l-32.9-32.9" fill="none" stroke="#005483" stroke-miterlimit="10" stroke-width="4.669"/>
    <path id="路径_382" data-name="路径 382" d="M1292.383,5531.658a48.758,48.758,0,1,0,24.545-82.1" fill="none" stroke="#005483" stroke-miterlimit="10" stroke-width="4.669"/>
    <line id="直线_215" data-name="直线 215" x2="19.793" transform="translate(1232.311 5445.502)" fill="none" stroke="#28a9e0" stroke-miterlimit="10" stroke-width="4.669"/>
    <line id="直线_216" data-name="直线 216" y2="19.793" transform="translate(1276.297 5546.024)" fill="none" stroke="#047dba" stroke-miterlimit="10" stroke-width="4.669"/>
    <line id="直线_217" data-name="直线 217" x1="19.793" transform="translate(1266.401 5555.92)" fill="none" stroke="#047dba" stroke-miterlimit="10" stroke-width="4.669"/>
  </g>
</svg>
