<svg xmlns="http://www.w3.org/2000/svg" width="170.272" height="152.339" viewBox="0 0 170.272 152.339">
  <g id="cmt-Web-icon006" transform="translate(-328.312 -6056.517)">
    <path id="路径_383" data-name="路径 383" d="M434.042,6099.573l-4.981-12.025-3.422-1.562-5.9,1.964L416.69,6087a43.292,43.292,0,0,0-7.351-7.339c-.352-1.124-.6-1.924-.955-3.049l1.968-5.909c-.6-1.317-.961-2.1-1.562-3.421l-12.026-4.981-3.523,1.315-2.787,5.569-2.832,1.481a43.224,43.224,0,0,0-10.387-.009l-2.83-1.479-2.785-5.562L368.1,6062.3l-12.025,4.981-1.563,3.421,1.965,5.9c-.352,1.123-.6,1.923-.956,3.047A43.214,43.214,0,0,0,348.18,6087l-3.049.955-5.909-1.968-3.421,1.562-4.981,12.025,1.314,3.524,5.57,2.787c.546,1.045.934,1.787,1.481,2.831a43.276,43.276,0,0,0-.01,10.387l-1.478,2.831-5.563,2.784c-.506,1.356-.809,2.167-1.314,3.524l4.981,12.025,3.421,1.562,5.9-1.965,3.047.956a43.25,43.25,0,0,0,7.351,7.338l.955,3.05-1.968,5.908c.6,1.317.961,2.1,1.563,3.422l12.025,4.981,3.523-1.315,2.787-5.569,2.832-1.481a43.274,43.274,0,0,0,10.387.009l2.83,1.478,2.784,5.563,3.524,1.315,12.026-4.981c.6-1.317.96-2.1,1.562-3.421l-1.965-5.9c.352-1.123.6-1.923.956-3.047a43.214,43.214,0,0,0,7.338-7.351l3.049-.955,5.909,1.968,3.421-1.562,4.981-12.025-1.314-3.524-5.57-2.787-1.48-2.831a43.275,43.275,0,0,0,.008-10.387l1.479-2.831,5.563-2.784C433.233,6101.74,433.535,6100.93,434.042,6099.573Z" fill="none" stroke="#005483" stroke-miterlimit="10" stroke-width="4.669"/>
    <path id="路径_384" data-name="路径 384" d="M449.714,6109.986A12.1,12.1,0,1,1,466.95,6125.1" fill="none" stroke="#005483" stroke-miterlimit="10" stroke-width="4.669"/>
    <path id="路径_385" data-name="路径 385" d="M493.836,6160.329l-2.678-6.466-3.6-1.493-4.45,1.843-3.227-.859a27.533,27.533,0,0,0-3.475-3.469l-.861-3.231,1.845-4.453-1.494-3.6-6.465-2.678-3.606,1.493-1.844,4.452-2.893,1.676a27.574,27.574,0,0,0-4.91,0l-2.889-1.675-1.843-4.45-3.606-1.493-6.465,2.678-1.493,3.6,1.843,4.45c-.32,1.2-.54,2.027-.859,3.227a27.508,27.508,0,0,0-3.469,3.475l-3.231.86-4.452-1.844-3.606,1.493-2.678,6.465c.583,1.408.91,2.2,1.494,3.606l4.452,1.844,1.676,2.893a27.587,27.587,0,0,0,0,4.911c-.623,1.073-1.052,1.815-1.675,2.888l-4.449,1.844c-.583,1.408-.91,2.2-1.494,3.6l2.678,6.466,3.606,1.493,4.449-1.843,3.227.859a27.563,27.563,0,0,0,3.475,3.469l.861,3.231-1.844,4.452,1.493,3.606,6.465,2.678,3.606-1.494,1.844-4.452,2.893-1.675a27.574,27.574,0,0,0,4.91,0l2.889,1.674,1.844,4.45,3.6,1.494,6.465-2.678,1.494-3.606-1.843-4.449c.319-1.2.539-2.028.858-3.227a27.441,27.441,0,0,0,3.469-3.475l3.231-.861,4.453,1.845,3.6-1.494,2.678-6.465-1.493-3.6-4.453-1.845-1.676-2.893a27.481,27.481,0,0,0,0-4.91l1.675-2.889,4.449-1.843Z" fill="none" stroke="#005483" stroke-miterlimit="10" stroke-width="4.669"/>
    <path id="路径_386" data-name="路径 386" d="M482.047,6131.473l6.081,2.957,3.688-1.275,2.969-6.1-1.275-3.689-4.188-2.036-1.5-2.989a27,27,0,0,0,.289-4.749l1.846-2.784,4.4-1.52,1.707-3.51-2.218-6.416-3.509-1.707-4.4,1.521c-1.178-.391-1.992-.66-3.171-1.05a27.019,27.019,0,0,0-3.16-3.557c-.247-1.219-.417-2.06-.664-3.278l2.036-4.188c-.5-1.441-.777-2.248-1.275-3.689l-6.1-2.969-3.689,1.275-2.036,4.188-2.989,1.5a27.066,27.066,0,0,0-4.749-.29l-2.783-1.845-1.521-4.4-3.509-1.706-6.416,2.217c-.666,1.371-1.04,2.139-1.707,3.51l2.207,6.385" fill="none" stroke="#005483" stroke-miterlimit="10" stroke-width="4.669"/>
    <path id="路径_387" data-name="路径 387" d="M469.863,6166.47a12.158,12.158,0,1,1-15.885-6.58A12.157,12.157,0,0,1,469.863,6166.47Z" fill="none" stroke="#005483" stroke-miterlimit="10" stroke-width="4.669"/>
    <ellipse id="椭圆_31" data-name="椭圆 31" cx="30.357" cy="30.305" rx="30.357" ry="30.305" transform="translate(352.04 6083.303)" fill="none" stroke="#005483" stroke-miterlimit="10" stroke-width="4.669"/>
    <path id="路径_388" data-name="路径 388" d="M374.119,6119.079h0a5.519,5.519,0,0,0,5.519,5.52h6.237a4.8,4.8,0,0,0,4.8-4.8v-.016a4.8,4.8,0,0,0-3.283-4.556l-9.991-3.33a4.8,4.8,0,0,1-3.283-4.555v-.016a4.8,4.8,0,0,1,4.8-4.8h6.236a5.519,5.519,0,0,1,5.519,5.519h0" fill="none" stroke="#005483" stroke-miterlimit="10" stroke-width="4.669"/>
    <line id="直线_218" data-name="直线 218" y1="8.279" transform="translate(382.397 6094.244)" fill="none" stroke="#005483" stroke-miterlimit="10" stroke-width="4.669"/>
    <line id="直线_219" data-name="直线 219" y2="8.279" transform="translate(382.397 6124.599)" fill="none" stroke="#005483" stroke-miterlimit="10" stroke-width="4.669"/>
    <circle id="椭圆_32" data-name="椭圆 32" cx="44.23" cy="44.23" r="44.23" transform="translate(368.906 6086.475)" fill="#ddf1f9"/>
    <line id="直线_220" data-name="直线 220" x2="19.793" transform="translate(458.867 6058.852)" fill="none" stroke="#28a9e0" stroke-miterlimit="10" stroke-width="4.669"/>
    <line id="直线_221" data-name="直线 221" y2="19.793" transform="translate(373.326 6179.68)" fill="none" stroke="#047dba" stroke-miterlimit="10" stroke-width="4.669"/>
    <line id="直线_222" data-name="直线 222" x1="19.793" transform="translate(363.43 6189.576)" fill="none" stroke="#047dba" stroke-miterlimit="10" stroke-width="4.669"/>
    <path id="路径_389" data-name="路径 389" d="M434.042,6099.573l-4.981-12.025-3.422-1.562-5.9,1.964L416.69,6087a43.292,43.292,0,0,0-7.351-7.339c-.352-1.124-.6-1.924-.955-3.049l1.968-5.909c-.6-1.317-.961-2.1-1.562-3.421l-12.026-4.981-3.523,1.315-2.787,5.569-2.832,1.481a43.224,43.224,0,0,0-10.387-.009l-2.83-1.479-2.785-5.562L368.1,6062.3l-12.025,4.981-1.563,3.421,1.965,5.9c-.352,1.123-.6,1.923-.956,3.047A43.214,43.214,0,0,0,348.18,6087l-3.049.955-5.909-1.968-3.421,1.562-4.981,12.025,1.314,3.524,5.57,2.787c.546,1.045.934,1.787,1.481,2.831a43.276,43.276,0,0,0-.01,10.387l-1.478,2.831-5.563,2.784c-.506,1.356-.809,2.167-1.314,3.524l4.981,12.025,3.421,1.562,5.9-1.965,3.047.956a43.25,43.25,0,0,0,7.351,7.338l.955,3.05-1.968,5.908c.6,1.317.961,2.1,1.563,3.422l12.025,4.981,3.523-1.315,2.787-5.569,2.832-1.481a43.274,43.274,0,0,0,10.387.009l2.83,1.478,2.784,5.563,3.524,1.315,12.026-4.981c.6-1.317.96-2.1,1.562-3.421l-1.965-5.9c.352-1.123.6-1.923.956-3.047a43.214,43.214,0,0,0,7.338-7.351l3.049-.955,5.909,1.968,3.421-1.562,4.981-12.025-1.314-3.524-5.57-2.787-1.48-2.831a43.275,43.275,0,0,0,.008-10.387l1.479-2.831,5.563-2.784C433.233,6101.74,433.535,6100.93,434.042,6099.573Z" fill="none" stroke="#005483" stroke-miterlimit="10" stroke-width="4.669"/>
    <path id="路径_390" data-name="路径 390" d="M449.714,6109.986A12.1,12.1,0,1,1,466.95,6125.1" fill="none" stroke="#005483" stroke-miterlimit="10" stroke-width="4.669"/>
    <path id="路径_391" data-name="路径 391" d="M493.836,6160.329l-2.678-6.466-3.6-1.493-4.45,1.843-3.227-.859a27.533,27.533,0,0,0-3.475-3.469l-.861-3.231,1.845-4.453-1.494-3.6-6.465-2.678-3.606,1.493-1.844,4.452-2.893,1.676a27.574,27.574,0,0,0-4.91,0l-2.889-1.675-1.843-4.45-3.606-1.493-6.465,2.678-1.493,3.6,1.843,4.45c-.32,1.2-.54,2.027-.859,3.227a27.508,27.508,0,0,0-3.469,3.475l-3.231.86-4.452-1.844-3.606,1.493-2.678,6.465c.583,1.408.91,2.2,1.494,3.606l4.452,1.844,1.676,2.893a27.587,27.587,0,0,0,0,4.911c-.623,1.073-1.052,1.815-1.675,2.888l-4.449,1.844c-.583,1.408-.91,2.2-1.494,3.6l2.678,6.466,3.606,1.493,4.449-1.843,3.227.859a27.563,27.563,0,0,0,3.475,3.469l.861,3.231-1.844,4.452,1.493,3.606,6.465,2.678,3.606-1.494,1.844-4.452,2.893-1.675a27.574,27.574,0,0,0,4.91,0l2.889,1.674,1.844,4.45,3.6,1.494,6.465-2.678,1.494-3.606-1.843-4.449c.319-1.2.539-2.028.858-3.227a27.441,27.441,0,0,0,3.469-3.475l3.231-.861,4.453,1.845,3.6-1.494,2.678-6.465-1.493-3.6-4.453-1.845-1.676-2.893a27.481,27.481,0,0,0,0-4.91l1.675-2.889,4.449-1.843Z" fill="none" stroke="#005483" stroke-miterlimit="10" stroke-width="4.669"/>
    <path id="路径_392" data-name="路径 392" d="M482.047,6131.473l6.081,2.957,3.688-1.275,2.969-6.1-1.275-3.689-4.188-2.036-1.5-2.989a27,27,0,0,0,.289-4.749l1.846-2.784,4.4-1.52,1.707-3.51-2.218-6.416-3.509-1.707-4.4,1.521c-1.178-.391-1.992-.66-3.171-1.05a27.019,27.019,0,0,0-3.16-3.557c-.247-1.219-.417-2.06-.664-3.278l2.036-4.188c-.5-1.441-.777-2.248-1.275-3.689l-6.1-2.969-3.689,1.275-2.036,4.188-2.989,1.5a27.066,27.066,0,0,0-4.749-.29l-2.783-1.845-1.521-4.4-3.509-1.706-6.416,2.217c-.666,1.371-1.04,2.139-1.707,3.51l2.207,6.385" fill="none" stroke="#005483" stroke-miterlimit="10" stroke-width="4.669"/>
    <path id="路径_393" data-name="路径 393" d="M469.863,6166.47a12.158,12.158,0,1,1-15.885-6.58A12.157,12.157,0,0,1,469.863,6166.47Z" fill="none" stroke="#005483" stroke-miterlimit="10" stroke-width="4.669"/>
    <ellipse id="椭圆_33" data-name="椭圆 33" cx="30.357" cy="30.305" rx="30.357" ry="30.305" transform="translate(352.04 6083.303)" fill="none" stroke="#005483" stroke-miterlimit="10" stroke-width="4.669"/>
    <path id="路径_394" data-name="路径 394" d="M374.119,6119.079h0a5.519,5.519,0,0,0,5.519,5.52h6.237a4.8,4.8,0,0,0,4.8-4.8v-.016a4.8,4.8,0,0,0-3.283-4.556l-9.991-3.33a4.8,4.8,0,0,1-3.283-4.555v-.016a4.8,4.8,0,0,1,4.8-4.8h6.236a5.519,5.519,0,0,1,5.519,5.519h0" fill="none" stroke="#005483" stroke-miterlimit="10" stroke-width="4.669"/>
    <line id="直线_223" data-name="直线 223" y1="8.279" transform="translate(382.397 6094.244)" fill="none" stroke="#005483" stroke-miterlimit="10" stroke-width="4.669"/>
    <line id="直线_224" data-name="直线 224" y2="8.279" transform="translate(382.397 6124.599)" fill="none" stroke="#005483" stroke-miterlimit="10" stroke-width="4.669"/>
  </g>
</svg>
