<svg xmlns="http://www.w3.org/2000/svg" width="172.231" height="117.145" viewBox="0 0 172.231 117.145">
  <g id="Comp_Mgmt-Comp-FA-Web-icon001" data-name="Comp Mgmt-Comp-FA-Web-icon001" transform="translate(-1219.049 -2044.026)">
    <circle id="椭圆_25" data-name="椭圆 25" cx="37.18" cy="37.18" r="37.18" transform="translate(1228.895 2067.502)" fill="#ddf1f9"/>
    <path id="路径_345" data-name="路径 345" d="M1280.638,2146.34v8.331a4.166,4.166,0,0,0,4.166,4.166h72.9a4.166,4.166,0,0,0,4.166-4.166v-91.647l-16.663-16.663h-60.4a4.166,4.166,0,0,0-4.166,4.165v12.5" fill="none" stroke="#005483" stroke-miterlimit="10" stroke-width="4.669"/>
    <path id="路径_346" data-name="路径 346" d="M1355.622,2065.107h-12.5v-12.5" fill="none" stroke="#005483" stroke-miterlimit="10" stroke-width="4.669"/>
    <line id="直线_179" data-name="直线 179" x2="27.078" transform="translate(1322.463 2125.947)" fill="none" stroke="#005483" stroke-miterlimit="10" stroke-width="4.669"/>
    <line id="直线_180" data-name="直线 180" x2="27.078" transform="translate(1322.463 2134.278)" fill="none" stroke="#005483" stroke-miterlimit="10" stroke-width="4.669"/>
    <line id="直线_181" data-name="直线 181" x2="20.829" transform="translate(1322.463 2142.61)" fill="none" stroke="#005483" stroke-miterlimit="10" stroke-width="4.669"/>
    <circle id="椭圆_26" data-name="椭圆 26" cx="33.326" cy="33.326" r="33.326" transform="translate(1247.312 2071.355)" fill="none" stroke="#005483" stroke-miterlimit="10" stroke-width="4.669"/>
    <path id="路径_347" data-name="路径 347" d="M1274.389,2113.013h0a4.166,4.166,0,0,0,4.166,4.166h4.166a4.166,4.166,0,0,0,4.166-4.166v-3.246a4.167,4.167,0,0,0-2.849-3.952l-6.8-2.267a4.167,4.167,0,0,1-2.849-3.952v-3.246a4.166,4.166,0,0,1,4.166-4.166h4.166a4.166,4.166,0,0,1,4.166,4.166h0" fill="none" stroke="#005483" stroke-miterlimit="10" stroke-width="4.669"/>
    <line id="直线_182" data-name="直线 182" y1="6.249" transform="translate(1280.638 2085.936)" fill="none" stroke="#005483" stroke-miterlimit="10" stroke-width="4.669"/>
    <line id="直线_183" data-name="直线 183" y2="6.249" transform="translate(1280.638 2117.179)" fill="none" stroke="#005483" stroke-miterlimit="10" stroke-width="4.669"/>
    <path id="路径_348" data-name="路径 348" d="M1337.918,2098.552a8.149,8.149,0,0,0,8.331-8.022v-2.675a8.337,8.337,0,0,0-16.663,0v2.675A8.149,8.149,0,0,0,1337.918,2098.552Z" fill="none" stroke="#005483" stroke-miterlimit="10" stroke-width="4.669"/>
    <path id="路径_349" data-name="路径 349" d="M1352.5,2111.076v-6.249c0-3.052-8.024-6.249-14.573-6.249s-14.573,3.2-14.573,6.249v6.249" fill="none" stroke="#005483" stroke-miterlimit="10" stroke-width="4.669"/>
    <line id="直线_184" data-name="直线 184" y1="4.303" x2="4.303" transform="translate(1385.325 2048.86)" fill="none" stroke="#92e5ff" stroke-miterlimit="10" stroke-width="4.669"/>
    <line id="直线_185" data-name="直线 185" y1="4.303" x2="4.303" transform="translate(1374.567 2059.619)" fill="none" stroke="#92e5ff" stroke-miterlimit="10" stroke-width="4.669"/>
    <line id="直线_186" data-name="直线 186" x1="4.303" y1="4.303" transform="translate(1374.567 2048.86)" fill="none" stroke="#92e5ff" stroke-miterlimit="10" stroke-width="4.669"/>
    <line id="直线_187" data-name="直线 187" x1="4.303" y1="4.303" transform="translate(1385.325 2059.619)" fill="none" stroke="#92e5ff" stroke-miterlimit="10" stroke-width="4.669"/>
    <line id="直线_188" data-name="直线 188" x2="16.556" transform="translate(1220.097 2118.007)" fill="none" stroke="#005483" stroke-miterlimit="10" stroke-width="4.669"/>
    <g id="组_185" data-name="组 185">
      <line id="直线_189" data-name="直线 189" y2="18.653" transform="translate(1228.375 2090.966)" fill="none" stroke="#28a9e0" stroke-miterlimit="10" stroke-width="4.669"/>
      <line id="直线_190" data-name="直线 190" x1="18.653" transform="translate(1219.049 2100.293)" fill="none" stroke="#28a9e0" stroke-miterlimit="10" stroke-width="4.669"/>
    </g>
  </g>
</svg>
