<svg xmlns="http://www.w3.org/2000/svg" width="167.628" height="162.625" viewBox="0 0 167.628 162.625">
  <g id="cmt-Web-icon008" transform="translate(-344.52 -8427.235)">
    <circle id="椭圆_28" data-name="椭圆 28" cx="61.063" cy="61.063" r="61.063" transform="translate(390.022 8427.235)" fill="#ddf1f9"/>
    <line id="直线_201" data-name="直线 201" x2="13.436" transform="translate(486.604 8474.926)" fill="none" stroke="#047dba" stroke-miterlimit="10" stroke-width="4.669"/>
    <path id="路径_358" data-name="路径 358" d="M382.488,8536.639c0-3.777-9.81-10.177-17.817-10.177s-17.816,6.4-17.817,10.177v12.723" fill="none" stroke="#005483" stroke-miterlimit="10" stroke-width="4.669"/>
    <path id="路径_359" data-name="路径 359" d="M418.023,8483.21c0-3.779-9.81-10.177-17.817-10.177s-17.816,6.4-17.816,10.177v15.265" fill="none" stroke="#005483" stroke-miterlimit="10" stroke-width="4.669"/>
    <path id="路径_360" data-name="路径 360" d="M468.909,8498.475V8483.21c0-3.779-9.81-10.177-17.817-10.177s-17.816,6.4-17.817,10.177" fill="none" stroke="#005483" stroke-miterlimit="10" stroke-width="4.669"/>
    <path id="路径_361" data-name="路径 361" d="M504.444,8549.361v-15.267c0-3.777-9.81-10.177-17.817-10.177s-17.816,6.4-17.817,10.177" fill="none" stroke="#005483" stroke-miterlimit="10" stroke-width="4.669"/>
    <path id="路径_362" data-name="路径 362" d="M484.532,8573.892l-28.631-28.63-11.75,11.64,28.686,28.686a6.615,6.615,0,0,0,9.356,0l2.339-2.339A6.617,6.617,0,0,0,484.532,8573.892Z" fill="none" stroke="#005483" stroke-miterlimit="10" stroke-width="4.669"/>
    <circle id="椭圆_29" data-name="椭圆 29" cx="35.62" cy="35.62" r="35.62" transform="translate(390.022 8490.843)" fill="none" stroke="#005483" stroke-miterlimit="10" stroke-width="4.669"/>
    <path id="路径_363" data-name="路径 363" d="M418.009,8483.21c0-3.779-9.8-10.177-17.8-10.177s-17.816,6.4-17.816,10.177v10.177" fill="none" stroke="#005483" stroke-miterlimit="10" stroke-width="4.669"/>
    <path id="路径_364" data-name="路径 364" d="M400.2,8473.033c-6.119,0-10.178-4.882-10.178-10.9v-3.636c0-6.021,4.058-10.9,10.177-10.9s10.178,4.882,10.178,10.9v3.637C410.377,8468.151,406.319,8473.033,400.2,8473.033Z" fill="none" stroke="#005483" stroke-miterlimit="10" stroke-width="4.669"/>
    <path id="路径_365" data-name="路径 365" d="M376.288,8529.964a24.377,24.377,0,0,0-11.617-3.5c-8.007,0-17.816,6.4-17.817,10.177v10.179" fill="none" stroke="#005483" stroke-miterlimit="10" stroke-width="4.669"/>
    <path id="路径_366" data-name="路径 366" d="M364.664,8526.462c-6.118,0-10.177-4.881-10.177-10.9v-3.636c0-6.021,4.058-10.9,10.177-10.9s10.177,4.882,10.177,10.9v3.636C374.841,8521.581,370.783,8526.462,364.664,8526.462Z" fill="none" stroke="#005483" stroke-miterlimit="10" stroke-width="4.669"/>
    <path id="路径_367" data-name="路径 367" d="M443.466,8544.272v-5.089c0-3.778-9.81-10.177-17.817-10.177s-17.816,6.4-17.817,10.177v5.089" fill="none" stroke="#005483" stroke-miterlimit="10" stroke-width="4.669"/>
    <path id="路径_368" data-name="路径 368" d="M425.642,8529.007c-6.118,0-10.177-4.882-10.177-10.9v-3.636c0-6.021,4.058-10.9,10.177-10.9s10.177,4.882,10.177,10.9v3.637C435.819,8524.125,431.761,8529.007,425.642,8529.007Z" fill="none" stroke="#005483" stroke-miterlimit="10" stroke-width="4.669"/>
    <path id="路径_369" data-name="路径 369" d="M433.275,8483.21c0-3.779,9.8-10.177,17.8-10.177s17.816,6.4,17.817,10.177v10.177" fill="none" stroke="#005483" stroke-miterlimit="10" stroke-width="4.669"/>
    <path id="路径_370" data-name="路径 370" d="M451.085,8473.033c6.118,0,10.177-4.882,10.177-10.9v-3.636c0-6.021-4.058-10.9-10.177-10.9s-10.177,4.882-10.177,10.9v3.637C440.908,8468.151,444.966,8473.033,451.085,8473.033Z" fill="none" stroke="#005483" stroke-miterlimit="10" stroke-width="4.669"/>
    <path id="路径_371" data-name="路径 371" d="M455.9,8545.262l28.631,28.63a6.617,6.617,0,0,1,0,9.356l-2.339,2.339a6.615,6.615,0,0,1-9.356,0L444.151,8556.9" fill="none" stroke="#005483" stroke-miterlimit="10" stroke-width="4.669"/>
    <path id="路径_372" data-name="路径 372" d="M504.43,8544.272v-10.178c0-3.777-9.81-10.177-17.817-10.177a24.38,24.38,0,0,0-11.617,3.5" fill="none" stroke="#005483" stroke-miterlimit="10" stroke-width="4.669"/>
    <path id="路径_373" data-name="路径 373" d="M486.62,8523.918c6.119,0,10.177-4.881,10.177-10.9v-3.636c0-6.021-4.058-10.9-10.177-10.9s-10.177,4.883-10.177,10.9v3.636C476.443,8519.037,480.5,8523.918,486.62,8523.918Z" fill="none" stroke="#005483" stroke-miterlimit="10" stroke-width="4.669"/>
    <line id="直线_202" data-name="直线 202" x1="5.089" y2="5.089" transform="translate(355.759 8481.428)" fill="none" stroke="#92e5ff" stroke-miterlimit="10" stroke-width="4.669"/>
    <line id="直线_203" data-name="直线 203" x1="5.089" y2="5.089" transform="translate(368.48 8468.706)" fill="none" stroke="#92e5ff" stroke-miterlimit="10" stroke-width="4.669"/>
    <line id="直线_204" data-name="直线 204" x2="5.089" y2="5.089" transform="translate(368.48 8481.428)" fill="none" stroke="#92e5ff" stroke-miterlimit="10" stroke-width="4.669"/>
    <line id="直线_205" data-name="直线 205" x2="5.089" y2="5.089" transform="translate(355.759 8468.706)" fill="none" stroke="#92e5ff" stroke-miterlimit="10" stroke-width="4.669"/>
    <line id="直线_206" data-name="直线 206" y2="15.266" transform="translate(493.322 8448.475)" fill="none" stroke="#047dba" stroke-miterlimit="10" stroke-width="4.669"/>
    <line id="直线_207" data-name="直线 207" x2="15.266" transform="translate(485.689 8456.107)" fill="none" stroke="#047dba" stroke-miterlimit="10" stroke-width="4.669"/>
  </g>
</svg>
